<svg xmlns="http://www.w3.org/2000/svg" width="396" height="108"><path fill-rule="evenodd" fill="#3699FF" d="M60.376 8.698c-12.203 0-23.39 4.383-32.101 11.671l.187 1.171-13.368 24.124h10.781L11.53 70.146l-.38-.239c.044.213.102.421.149.633l-3.893 6.643A50.708 50.708 0 010 50.738C0 22.716 22.526 0 50.313 0c14.895 0 28.273 6.533 37.486 16.906a49.755 49.755 0 00-27.423-8.208zm2.299 76.859l14.951-24.671h-11.5l13.603-23.047.403.254a6.03 6.03 0 01-.104-.76l3.847-6.518a50.706 50.706 0 017.407 26.447C91.282 85.284 68.756 108 40.969 108c-14.895 0-28.273-6.533-37.485-16.906a49.758 49.758 0 0027.422 8.208c12.203 0 23.39-4.383 32.101-11.671l-.332-2.074z"/><path fill-rule="evenodd" fill="#1A5BF7" d="M76.188 46.389l-8.625 13.772h11.5L63.251 87.705H0l24.938-41.316H13.656L28.75 19.57h63.251L76.188 46.389z"/><path fill-rule="evenodd" fill="#FFF" d="M50.313 37.691L26.594 78.282h-11.5l24.438-40.591H28.75l5.75-9.423h20.844l-5.031 9.423zm3.594 31.168h9.344l-5.032 9.423H36.657l5.75-9.423 24.437-40.591h10.782L53.907 68.859z"/><path fill-rule="evenodd" fill="#262626" d="M395.097 78.469c-.603 1.411-2.581 2.116-5.936 2.116h-16.32V65.03h23.16v9.977c0 .898-.302 2.051-.904 3.462zm-5.936-8.086h-9.508v4.849h6.283c1.13 0 1.835-.066 2.113-.196.278-.131.533-.355.764-.673.232-.318.348-.701.348-1.149v-2.831zm-9.495-7.736c-1.14-.373-1.997-.747-2.571-1.12l-5.7-3.616-3.698 3.616c-.704.691-1.793 1.144-3.267 1.359-1.473.215-3.619.322-6.436.322h-10.899v-5.522h10.677c1.575 0 2.784-.098 3.628-.293.843-.197 1.608-.65 2.294-1.36l2.697-2.831h-19.49v-5.213h20.908v-1.681h7.201v1.681h8.896l.918-2.046h6.561v2.046h4.31v5.213h-20.38l4.977 2.831c1.372.804 2.358 1.28 2.961 1.429.602.15 1.747.224 3.434.224h9.286v5.522h-9.397c-3.467 0-5.77-.186-6.91-.561zm9.273-17.432h-16.015V29.659h22.771v10.006c0 .897-.297 2.046-.89 3.447-.593 1.402-2.549 2.103-5.866 2.103zm0-10.202h-9.175v4.848h6.005c1.112 0 1.919-.116 2.419-.35.5-.233.751-.789.751-1.668v-2.83zm-25.857 10.622h-16.487V29.631h23.243v10.286c0 .897-.292 2.074-.876 3.532-.583 1.457-2.544 2.186-5.88 2.186zm0-10.482h-9.731v4.988h6.534c1.056 0 1.853-.121 2.391-.364.537-.242.806-.822.806-1.738v-2.886zM317.416 79.87c-.714-.588-1.098-1.229-1.154-1.919a21.3 21.3 0 01-.084-1.598v-7.175l-9.897 9.557c-.964.935-1.84 1.542-2.628 1.822-.788.281-2.025.42-3.711.42h-10.454v-5.97h7.59c1.853 0 3.457-.654 4.81-1.961l7.729-7.456v-6.138h7.285v9.418h6.477v4.176c0 .598.172 1.009.515 1.233.343.224 1.154.336 2.433.336h13.178v6.138h-16.126c-3.262 0-5.25-.294-5.963-.883zm12.442-33.128a3.734 3.734 0 01-1.112-1.121c-.278-.439-.464-.799-.557-1.079l-3.308-9.053h-1.001l-1.863 8.829c-.13.579-.542 1.205-1.237 1.877-.695.673-1.821 1.009-3.378 1.009h-5.533v-5.549h2.252c1.019 0 1.668-.187 1.946-.56.278-.374.473-.841.584-1.402l1.779-10.258h20.575v6.054h-7.618l1.724 5.353c.129.412.282.701.458.869.176.168.709.252 1.599.252h4.337v5.241h-6.283c-1.78 0-2.901-.154-3.364-.462zm-27.553-17.307h6.672v17.966h-6.672V29.435zm-11.705 0h6.672v17.769H290.6V29.435zm-.612 40.079V49.671h48.683v19.928h-7.201V55.641h-34.281v13.873h-7.201zM276.67 80.417h-7.701v-5.549h4.838c.76 0 1.297-.183 1.612-.547.315-.364.473-1.005.473-1.92v-43.19h6.006v45.573c0 1.606-.445 2.946-1.335 4.021-.89 1.075-2.187 1.612-3.893 1.612zm-9.702-48.572h5.727v40.023h-5.727V31.845zm-21.27.533h6.256l1.14-3.167h5.977l.973 3.167h5.172v6.278h-19.518v-6.278zm2.419 42.251c.185-.234.371-.668.556-1.303l3.281-11.071-5.477-20.544h6.561l2.419 8.969 2.474-8.969h6.868l-5.728 20.096 2.475 9.333c.482 1.812.903 2.905 1.265 3.279.361.373.709.56 1.042.56h.946v5.774h-3.809c-1.353 0-2.303-.271-2.85-.813-.547-.542-.997-1.336-1.349-2.382l-1.445-4.232-1.029 3.307c-.538 1.682-1.131 2.789-1.779 3.322-.649.532-1.455.798-2.419.798h-5.06v-5.774h2.168c.408 0 .704-.116.89-.35zm-6.853 3.041a5.159 5.159 0 01-1.043 1.696c-.445.476-1.061.85-1.849 1.121s-1.441.406-1.96.406h-4.309v-6.025h1.64c.612 0 1.042-.202 1.293-.603.25-.402.496-1.079.737-2.032l2.057-8.717h6.784l-2.558 11.352c-.278 1.214-.542 2.148-.792 2.802zm-4.588-18.666c-.973-.243-1.65-.752-2.029-1.527a10.644 10.644 0 01-.848-2.453l-1.891-8.716h6.701l1.028 5.213c.241 1.233.955 1.85 2.141 1.85h2.836v5.997h-4.977c-1 0-1.988-.121-2.961-.364zm-.695-16.957c-.713-.654-1.237-1.709-1.571-3.167l-2.307-9.529h6.7l1.557 6.306c.167.767.394 1.285.681 1.556.288.271.793.406 1.515.406h2.058v5.409h-5.338c-1.483 0-2.582-.326-3.295-.981zm-27.386-5.437c-.88-.411-1.561-.901-2.043-1.471-.483-.57-.825-1.107-1.029-1.612l-1.64-3.868h8.257l.556.813c.167.28.422.486.765.617s.977.196 1.904.196h10.371v5.942h-11.399c-2.948 0-4.862-.206-5.742-.617zm13.332 2.775l-14.263 7.567 1.029.308c1.797.543 4.29.813 7.478.813h9.231v5.97h-9.231c-5.356 0-9.453-.626-12.288-1.878l-3.503-1.541-4.115 1.653c-.816.337-2.16.678-4.032 1.023a32.55 32.55 0 01-5.922.519h-10.982v-5.746h9.119c2.169 0 3.707-.037 4.616-.112a8.574 8.574 0 002.585-.616l1.446-.589-13.151-7.371h12.317l8.202 3.868 8.841-3.868h12.623zm-27.053-4.26c-.5.579-1.181 1.074-2.043 1.485-.862.411-2.766.617-5.714.617h-11.788v-5.942h10.76c.908 0 1.534-.065 1.877-.196a1.61 1.61 0 00.792-.617l.556-.813h8.285l-1.64 3.868c-.222.486-.584 1.019-1.085 1.598zm-36.533 17.32h10.287v21.554c0 .99-.204 2.326-.611 4.008-.408 1.681-1.91 2.522-4.504 2.522h-20.046l.056-28.084h8.09v-23.43h6.728v7.539l10.426.056v6.25l-10.481-.028.055 9.613zm-8.146 6.279v15.583h9.231c1.019 0 1.682-.154 1.988-.463.306-.308.458-1.06.458-2.256V58.724h-11.677zm-32.196-20.685l.028-6.222h8.119l1.557-2.774h5.449l1.724 2.774h8.09l-.055 6.222h-24.912zm4.755 31.699c-.575-.747-.918-1.727-1.029-2.942l-2.474-24.861h6.228l2.252 21.666c.129 1.289.639 1.933 1.529 1.933h.528l.056 5.718h-2.503c-1.334 0-2.289-.065-2.863-.196-.575-.131-1.15-.57-1.724-1.318zm13.568 1.318c-.575.131-1.52.196-2.836.196h-2.53l.055-5.718h.529c.518 0 .884-.172 1.098-.518.213-.346.356-.817.431-1.415l2.169-21.862h6.2l-2.364 25.057c-.13 1.233-.477 2.219-1.042 2.957-.566.738-1.136 1.172-1.71 1.303zm5.95 9.193h-23.828v-6.222h23.772l.056 6.222zm36.129-5.984c.195-.252.292-.771.292-1.556V56.958h35.449c1.501 0 2.252-.402 2.252-1.205v-.533h7.813v2.158c0 .841-.116 1.668-.348 2.481-.232.812-.844 1.527-1.835 2.144-.992.616-3.517.925-7.576.925h-28.053v2.41h38.924v5.97h-6.757v9.669h-7.645v-9.669h-24.522v2.186c0 1.57-.107 2.751-.32 3.546-.213.793-.756 1.578-1.627 2.354-.871.775-2.613 1.163-5.226 1.163h-3.893v-5.914h1.529c.834 0 1.349-.126 1.543-.378zm191.966.771c0 .859-.311 2.013-.932 3.461s-2.599 2.172-5.936 2.172h-16.82V64.918h23.688v10.118zm-6.785-4.681h-10.008v4.905h6.728c1.093 0 1.914-.126 2.46-.379.547-.252.82-.817.82-1.695v-2.831z"/></svg>