<?xml version="1.0" standalone="no"?><!DOCTYPE svg PUBLIC "-//W3C//DTD SVG 1.1//EN" "http://www.w3.org/Graphics/SVG/1.1/DTD/svg11.dtd"><svg t="1773479131432" class="icon" viewBox="0 0 1024 1024" version="1.1" xmlns="http://www.w3.org/2000/svg" p-id="14061" xmlns:xlink="http://www.w3.org/1999/xlink" width="200" height="200"><path d="M1023.829333 284.103111c-0.170667-16.270222-0.170667-22.983111-0.398222-30.606222a405.902222 405.902222 0 0 0-5.859555-67.015111 235.064889 235.064889 0 0 0-20.48-63.886222 227.612444 227.612444 0 0 0-40.903112-55.011556A227.896889 227.896889 0 0 0 901.12 26.737778a234.382222 234.382222 0 0 0-63.715556-20.48 405.959111 405.959111 0 0 0-67.072-5.688889c-7.68-0.170667-14.336-0.170667-30.72-0.398222C724.195556 0 711.623111 0 702.122667 0H321.820444c-9.443556 0-22.016 0-37.546666 0.170667-16.384 0.227556-23.04 0.227556-30.72 0.398222a406.755556 406.755556 0 0 0-67.072 5.916444c-22.584889 4.323556-43.235556 10.012444-63.886222 20.48a228.181333 228.181333 0 0 0-55.068445 40.846223 222.094222 222.094222 0 0 0-40.732444 55.011555A233.130667 233.130667 0 0 0 6.257778 186.595556c-3.868444 20.650667-5.461333 44.032-5.688889 67.015111-0.170667 7.68-0.170667 14.336-0.398222 30.663111C0 299.804444 0 312.604444 0 321.991111v380.017778c0 9.443556 0 22.016 0.170667 37.546667 0.227556 16.270222 0.227556 22.983111 0.398222 30.606222 0.398222 23.04 1.820444 46.193778 5.688889 67.015111 4.380444 22.584889 10.069333 43.235556 20.48 63.886222 10.638222 20.821333 25.031111 38.912 40.732444 55.011556 16.099556 15.701333 34.190222 30.264889 55.068445 40.846222a234.382222 234.382222 0 0 0 63.715555 20.48c20.821333 3.925333 44.032 5.290667 67.072 5.859555 7.623111 0.227556 14.336 0.227556 30.663111 0.398223 15.530667 0.170667 28.330667 0.170667 37.546667 0.170666h380.359111c9.443556 0 22.016 0 37.546667-0.170666 16.327111-0.170667 23.04-0.170667 30.72-0.398223a406.869333 406.869333 0 0 0 67.072-5.916444c22.584889-4.323556 43.235556-10.012444 63.715555-20.423111 20.821333-10.581333 38.912-25.144889 55.068445-40.846222 15.701333-16.099556 30.264889-34.190222 40.903111-55.011556 10.410667-20.650667 16.099556-41.073778 20.48-63.886222a426.666667 426.666667 0 0 0 5.859555-67.015111c0.170667-7.623111 0.170667-14.336 0.398223-30.606222 0.170667-15.530667 0.170667-28.330667 0.170666-37.546667V321.649778c0.227556-9.216 0.227556-22.016 0-37.546667z" fill="#F8CE07" p-id="14062"></path><path d="M90.168889 474.737778l117.248 28.103111 73.557333 35.783111 32.426667-10.012444 28.672 10.012444 21.276444-2.275556c10.296889-1.422222 16.611556-1.422222 18.887111 0 2.275556 1.536 11.491556 6.542222 27.818667 15.132445l13.027556 8.135111h18.261333l20.024889 7.224889 10.752 26.624 10.126222 16.384 31.744 14.791111 7.736889 37.888v15.701333l12.344889 5.063111 23.779555 4.892445h17.635556l17.294222-18.944h24.689778l26.965333-13.937778v-18.488889l20.593778 5.916445 26.055111-10.808889 11.776-15.928889v-22.528l26.851556 4.664889 27.306666-16.668445-4.835555-29.980444 4.778667-15.075556 32.995555-12.515555 67.868445-21.048889 84.195555-28.103111-41.415111-96.597334-53.248-48.810666-41.870222 19.626666-75.776 14.449778-112.241778-22.869333-75.946667-25.770667-59.278222 7.964445-59.164444 33.109333-66.787556 7.566222H285.468444l-59.960888-22.869333-47.047112-11.207111-13.482666 11.207111-52.906667 59.733333-27.875555 53.987556 5.973333 20.48z" fill="#FFFFFF" p-id="14063"></path><path d="M582.769778 392.874667c-14.848-11.036444-25.031111-16.896-33.962667-19.456a57.173333 57.173333 0 0 0-16.668444-2.56c-6.656 0-13.767111 1.137778-21.219556 3.413333-16.782222 5.347556-33.564444 18.488889-49.777778 31.288889l-0.853333 0.625778c-15.132444 11.889778-30.72 24.177778-42.552889 26.737777a72.817778 72.817778 0 0 1-15.758222 1.763556c-13.198222 0-25.088-3.811556-29.582222-9.443556-0.739556-0.910222-0.284444-2.389333 1.422222-4.551111l0.341333-0.284444 36.522667-39.025778c28.672-28.330667 55.751111-55.068444 118.158222-56.490667h3.072c38.855111 0 77.539556 17.123556 81.92 19.171556a256 256 0 0 0 111.786667 26.453333c39.310222 0 79.985778-9.671111 122.652444-29.070222a333.937778 333.937778 0 0 0-14.791111-11.605333c-37.546667 16.099556-73.272889 24.120889-107.747555 24.120889a239.104 239.104 0 0 1-104.561778-24.860445c-1.820444-0.796444-44.600889-20.707556-89.201778-20.821333l-3.527111 0.056889c-52.451556 1.194667-81.92 19.626667-101.717333 35.726222-19.342222 0.455111-35.896889 5.006222-50.744889 9.102222-13.198222 3.697778-24.632889 6.826667-35.84 6.826667a295.253333 295.253333 0 0 1-13.482667-0.512c-12.8-0.341333-77.368889-15.928889-128.682667-35.157333a336.213333 336.213333 0 0 0-15.189333 11.377777c53.646222 21.617778 118.897778 38.456889 139.377778 39.822223 5.802667 0.341333 11.832889 0.967111 17.976889 0.967111 13.653333 0 27.249778-3.754667 40.391111-7.395556 7.793778-2.218667 16.327111-4.551111 25.315555-6.257778l-7.168 7.111111-37.205333 39.708445c-2.901333 2.958222-9.272889 10.808889-5.12 20.366222a25.713778 25.713778 0 0 0 9.784889 10.695111c8.931556 5.916444 24.803556 9.898667 39.537778 9.898667 5.575111 0 10.808889-0.568889 15.701333-1.592889 15.644444-3.470222 31.971556-16.384 49.322667-29.980444 13.824-10.808889 33.393778-24.576 48.355555-28.615112a54.784 54.784 0 0 1 17.066667-1.649777c9.841778 1.251556 19.456 4.551111 36.636444 17.294222 30.549333 22.641778 165.717333 139.491556 166.968889 140.629333 0.113778 0.056889 8.704 7.395556 8.078222 19.626667a20.935111 20.935111 0 0 1-10.808888 17.066667 32.995556 32.995556 0 0 1-17.635556 5.461333 29.468444 29.468444 0 0 1-15.644444-4.551111c-0.568889-0.341333-46.819556-42.268444-63.886223-56.376889-2.673778-2.218667-5.347556-4.209778-8.021333-4.209778a4.380444 4.380444 0 0 0-3.527111 1.649778c-2.673778 3.242667 0.398222 7.736889 3.868444 10.752l54.101334 53.76c0.056889 0 6.712889 6.200889 7.452444 14.392889 0.398222 8.988444-3.868444 16.384-12.8 22.186666a35.043556 35.043556 0 0 1-19.228444 6.257778 28.046222 28.046222 0 0 1-15.36-4.664889l-7.850667-7.509333c-12.686222-12.743111-25.884444-25.031111-39.480889-36.920889-2.616889-2.104889-5.404444-4.096-8.078222-4.096a4.778667 4.778667 0 0 0-3.413333 1.422222c-1.194667 1.308444-2.048 3.754667 1.024 7.736889 0.796444 1.080889 1.706667 2.104889 2.730666 3.015111l39.424 43.804445c0.341333 0.398222 8.135111 9.557333 0.853334 18.716444l-1.365334 1.706667a43.121778 43.121778 0 0 1-3.640889 3.527111 31.516444 31.516444 0 0 1-19.342222 6.030222 29.354667 29.354667 0 0 1-5.347555-0.455111c-3.868444-0.625778-6.485333-1.706667-7.736889-3.242667l-0.455111-0.455111c-2.218667-2.218667-22.016-22.300444-38.570667-35.84-2.161778-1.877333-4.835556-4.039111-7.68-4.039111a4.778667 4.778667 0 0 0-3.470222 1.536c-3.299556 3.527111 1.592889 8.760889 3.640889 10.695111l33.621333 36.693334a7.338667 7.338667 0 0 1-1.194667 2.275555c-1.194667 1.592889-5.290667 5.688889-17.521778 7.168a33.393778 33.393778 0 0 1-4.437333 0.227556c-12.629333 0-26.055111-5.973333-32.995555-9.671111a48.924444 48.924444 0 0 0-10.695112-56.832 50.062222 50.062222 0 0 0-36.465777-13.824c0.853333-12.515556-0.910222-36.181333-25.486223-46.592a53.304889 53.304889 0 0 0-21.048888-4.551111 43.406222 43.406222 0 0 0-15.36 2.730666 42.097778 42.097778 0 0 0-24.519112-20.650666 55.751111 55.751111 0 0 0-18.090666-3.072 47.843556 47.843556 0 0 0-28.046222 8.817777 42.780444 42.780444 0 0 0-63.032889-3.413333c-10.467556-7.964444-52.110222-34.019556-163.271111-59.050667-8.533333-2.104889-16.952889-4.380444-25.372445-6.883555-1.251556 5.973333-2.161778 11.946667-2.844444 18.090666l24.519111 5.688889c113.664 24.974222 151.324444 50.915556 157.582222 55.751111a41.642667 41.642667 0 0 0 12.174222 48.696889c9.728 7.964444 22.528 11.264 34.929778 8.931556 3.527111 17.066667 14.848 29.980444 32.142222 36.636444a42.666667 42.666667 0 0 0 15.189334 2.958223 38.570667 38.570667 0 0 0 9.728-1.251556c3.128889 8.021333 10.296889 18.033778 26.396444 24.462222 5.290667 2.161778 10.979556 3.299556 16.725333 3.413334a37.432889 37.432889 0 0 0 12.970667-2.275556c7.850667 18.602667 26.168889 30.72 46.421333 30.72a50.289778 50.289778 0 0 0 36.010667-15.018667c8.078222 4.437333 25.144889 12.515556 42.552889 12.515556a45.852444 45.852444 0 0 0 6.371555-0.398222c17.180444-2.161778 25.201778-8.760889 28.842667-13.994667a20.821333 20.821333 0 0 0 1.763556-2.844444c3.982222 1.137778 8.533333 2.161778 13.653333 2.161777a46.250667 46.250667 0 0 0 27.420444-9.671111c8.931556-6.428444 15.303111-15.530667 16.213334-23.324444v-0.398222a44.942222 44.942222 0 0 0 9.216 0.967111c9.671111 0 19.228444-3.015111 28.273778-8.874667 17.521778-11.320889 20.48-26.168889 20.252444-35.84 12.401778 2.616889 25.258667 0 35.726222-7.054222a38.058667 38.058667 0 0 0 18.375111-29.582222 39.594667 39.594667 0 0 0-5.859555-23.893334c29.411556-12.515556 96.426667-36.636444 175.388444-54.215111a172.202667 172.202667 0 0 0-2.503111-17.976889c-63.260444 13.824-125.155556 33.678222-184.604444 59.221334-41.642667-35.726222-137.841778-118.385778-163.896889-137.784889z" fill="#06307E" p-id="14064"></path><path d="M479.573333 683.235556a33.962667 33.962667 0 0 1-34.304-32.369778c-0.056889-1.536-0.227556-5.688889-3.754666-5.688889-1.479111 0-2.730667 0.910222-4.152889 2.218667a24.177778 24.177778 0 0 1-16.839111 7.509333 29.923556 29.923556 0 0 1-11.150223-2.389333c-19.569778-7.850667-19.797333-21.162667-19.057777-26.510223 0.227556-1.422222 0.284444-2.958222-0.739556-4.039111l-1.137778-1.137778h-1.251555c-0.967111 0-1.991111 0.455111-3.413334 1.479112a28.842667 28.842667 0 0 1-16.611555 5.859555 25.6 25.6 0 0 1-9.216-1.877333c-25.884444-9.841778-23.779556-33.905778-22.584889-41.130667 0.227556-1.536-0.170667-2.673778-1.137778-3.413333l-1.763555-1.422222-1.706667 1.536a26.680889 26.680889 0 0 1-45.283556-19.057778c0-14.620444 12.003556-26.396444 26.794667-26.396445 13.312 0 24.689778 9.841778 26.339556 23.04l0.967111 7.111111 3.982222-6.030222a39.253333 39.253333 0 0 1 31.232-16.839111 38.115556 38.115556 0 0 1 11.548444 1.820445c15.872 4.778667 18.545778 19.057778 18.944 24.917333 0.284444 3.413333 2.730667 3.640889 3.299556 3.640889 1.365333 0 2.332444-0.910222 3.015111-1.706667a27.306667 27.306667 0 0 1 19.797333-8.192c4.664889 0 9.557333 1.137778 14.677334 3.299556 25.258667 10.695111 13.880889 42.382222 13.653333 42.666666-2.104889 5.290667-2.218667 7.566222-0.170667 8.931556l1.024 0.455111h0.682667c1.137778 0 2.56-0.512 4.949333-1.251556a43.576889 43.576889 0 0 1 13.368889-2.901333c18.887111 0 34.133333 15.189333 34.417778 33.962667a34.190222 34.190222 0 0 1-34.417778 33.962666" fill="#FFFFFF" p-id="14065"></path><path d="M512 219.420444c242.289778 0 438.784 127.374222 438.784 283.591112v16.611555c0 165.774222-170.211556 299.975111-438.840889 299.975111-267.093333 0-438.784-134.200889-438.784-299.975111v-16.611555C73.216 346.794667 269.653333 219.420444 512 219.420444z m0.113778 16.725334c-233.073778 0-421.944889 119.466667-421.944889 266.695111 0 147.285333 188.871111 266.695111 421.888 266.695111s421.888-119.466667 421.888-266.695111c0.056889-147.285333-188.871111-266.695111-421.831111-266.695111z" fill="#06307E" p-id="14066"></path></svg>