<?xml version="1.0" standalone="no"?><!DOCTYPE svg PUBLIC "-//W3C//DTD SVG 1.1//EN" "http://www.w3.org/Graphics/SVG/1.1/DTD/svg11.dtd"><svg t="1773478433527" class="icon" viewBox="0 0 1024 1024" version="1.1" xmlns="http://www.w3.org/2000/svg" p-id="6808" xmlns:xlink="http://www.w3.org/1999/xlink" width="200" height="200"><path d="M832.64 51.2H191.36C113.92 51.2 51.2 113.92 51.2 191.36v640.96c0 77.44 62.72 140.16 140.16 140.16h640.96c77.44 0 140.16-62.72 140.16-140.16V191.36c0-77.44-62.72-140.16-140.16-140.16h0.32z" fill="#FB7701" p-id="6809"></path><path d="M539.936 527.84c5.12 0 9.824 2.272 12.704 6.208l46.336 65.216 46.208-65.248a15.872 15.872 0 0 1 12.704-6.176h13.12c11.68 0 21.184 8.864 21.12 19.84v136.384c0.096 11.008-9.408 19.968-21.12 19.936-11.712 0-21.184-8.928-21.184-19.936V594.56l-35.712 47.296a19.392 19.392 0 0 1-30.4 0l-35.68-47.296v89.536c-0.64 10.56-9.92 18.816-21.184 18.816-11.232 0-20.544-8.256-21.152-18.816v-136.384c-0.064-10.976 9.408-19.84 21.12-19.84h13.12z m328.192 0c11.68 0 21.152 8.864 21.12 19.84v81.856c0.096 49.984-32.736 74.464-84.48 74.464-51.68 0-83.328-24.736-83.328-73.28v-83.008c-0.032-10.976 9.44-19.872 21.12-19.84 11.744-0.096 21.28 8.832 21.248 19.84v82.08c-0.096 26.816 15.616 40.704 41.472 40.704 25.856 0.064 41.568-13.344 41.568-39.52v-83.296c0-10.944 9.568-19.84 21.216-19.84h0.064z m-595.104 0c11.712-0.064 21.216 8.864 21.216 19.84 0 11.072-9.536 19.968-21.216 19.968H232.256v116.256c0 11.04-9.536 19.936-21.184 19.936-11.712-0.064-21.12-8.96-21.12-19.968v-116.256H149.216c-11.712 0-21.216-8.928-21.216-19.936 0-10.944 9.536-19.84 21.216-19.84h123.808z m183.168 0c11.68 0 21.152 8.864 21.12 19.84 0.096 11.008-9.408 19.968-21.12 19.968h-93.568v28.256h81.408c11.776 0 21.248 8.96 21.248 19.936 0 10.944-9.568 19.84-21.248 19.84h-81.408v28.288h93.6c11.648 0 21.12 8.96 21.12 19.904 0.064 11.008-9.408 19.968-21.12 19.968h-114.72c-11.712 0-21.216-8.96-21.216-19.968v-136.192c0-10.944 9.568-19.84 21.216-19.84h114.688zM249.28 320l4.128 0.16 0.384 0.64a30.4 30.4 0 0 1-3.2 37.536l-0.736 0.736c-3.2 3.424-8.96 11.136-6.656 20.8l0.448 1.824-0.256-1.184 42.432 64.64a11.008 11.008 0 0 1-1.92 14.4l-1.44 1.152c-11.008 7.264-33.088 17.216-71.296 17.216-38.304 0-60.384-9.952-71.36-17.216a11.136 11.136 0 0 1-3.392-15.552l42.56-64.64c2.944-10.752-4.384-19.2-7.36-22.176-14.656-17.696-5.6-33.92-3.2-37.536l0.48-0.64c20.96-1.056 34.848 6.272 42.24 16.704 6.4-9.088 17.664-15.776 34.176-16.768L249.28 320z m94.816 5.536c9.44-7.072 28.352-2.464 42.912 24.736q12.736 17.824 21.056 22.624c5.952 3.552 13.216 4.544 22.56 2.56 11.2-2.368 18.144-5.44 25.28-12.512 5.76-5.792 13.76-8.96 18.88 0.8 2.24 4.192 6.304 10.432-0.832 21.056-1.664 2.304-3.552 4.48-5.696 6.4-3.2 3.104-5.44 5.44-6.464 7.904 2.112 5.888 4.032 10.784 5.76 14.688l10.816 22.656c2.048-1.536 3.968-3.104 5.92-4.736a8.384 8.384 0 0 1 11.072 0.288 6.784 6.784 0 0 1-0.384 10.144 140.16 140.16 0 0 1-91.648 33.152 140.48 140.48 0 0 1-91.36-33.152 7.136 7.136 0 0 1-2.432-4.992 6.56 6.56 0 0 1 2.112-5.152 8.48 8.48 0 0 1 11.104-0.288c2.496 2.176 6.592 5.184 12.064 9.088 10.112-14.336 16.864-34.72 19.104-47.68-4.64 3.008-15.36 13.12-28.64 5.248-23.648-13.952-24.736-19.936-6.272-44.48 1.12-1.44 17.824-22.912 25.056-28.352h0.032z m310.4-2.912c16.128 5.44 45.28 21.472 41.504 39.968-4.352 21.28-9.76 27.52-9.76 55.712-0.064 28.16 1.088 48.128 2.624 54.72h-17.92c1.792-6.592 9.824-70.112-7.36-70.112-17.184 0.096-32.992 70.144-81.984 70.144-56.32-0.128-75.456-6.528-73.984-14.592 1.728-9.792 46.464-29.184 69.952-29.376 8.288 0 13.376 9.248 19.552 6.432 56.128-25.44 26.56-85.344 57.408-112.896z m176 2.24c32.48 0.032 59.424 23.68 61.696 54.112l3.68 48.864c1.696 23.2-17.888 42.912-42.624 42.912h-95.904c-24.736-0.064-44.224-19.776-42.56-42.944l3.712-48.832c2.24-30.464 29.184-54.08 61.728-54.08h50.24zM403.52 437.28c-14.272 0-27.68 8.32-31.744 19.744 10.144 2.56 15.744 3.904 31.552 3.904 10.528 0.096 20.832-1.184 31.168-3.712-4.256-12.96-15.84-19.936-30.976-19.936z m379.008-71.84c-0.096-5.248-20.256-5.248-20.256 0v1.344c0 22.368 19.296 40.48 43.072 40.48 23.808 0 43.072-18.112 43.072-40.48v-1.344c0-5.248-20.256-5.248-20.256 0v1.344c0 11.872-10.336 21.472-22.848 21.472-12.576-0.064-22.72-9.664-22.784-21.44v-1.376z" fill="#FFFFFF" p-id="6810"></path></svg>